/* XPM */
static char * focused_xpm[] = {
"10 20 4 1",
" 	c None",
".	c #414141",
"+	c #101010",
"@	c #3B3B3B",
"..........",
"++++++++++",
"@@@@@@@@@@",
"..........",
"..........",
"..........",
"..........",
"..........",
"..........",
"..........",
"..........",
"..........",
"..........",
"..........",
"..........",
"..........",
"..........",
"..........",
"..........",
"++++++++++"};
