/* XPM */
static char * min_pressed_xpm[] = {
"20 20 5 1",
" 	c None",
".	c #727272",
"+	c #222222",
"@	c #FF0000",
"#	c #000000",
"....................",
"....................",
"++++++++++++++++++++",
"++++++++++++++++++++",
"++++++++++++++++++++",
"++++++++++++++++++++",
"++++++++++++++++++++",
"++++++++++++++++++++",
"++++++++++++++++++++",
"++++++++++++++++++++",
"++++++++@+++@+++++++",
"+++++++++@#@++#+++++",
"++++++++++@#+#++++++",
"++++++++++++#+++++++",
"++++++++++++++++++++",
"++++++++++++++++++++",
"++++++++++++++++++++",
"++++++++++++++++++++",
"++++++++++++++++++++",
"++++++++++++++++++++"};
