/* XPM */
static char * stick_xpm[] = {
"20 20 89 1",
" 	c None",
".	c #727272",
"+	c #222222",
"@	c #1F1F1F",
"#	c #1E1E1E",
"$	c #202020",
"%	c #272727",
"&	c #2E2E2E",
"*	c #393939",
"=	c #444444",
"-	c #4F4F4F",
";	c #5B5B5B",
">	c #646464",
",	c #626262",
"'	c #474747",
")	c #1D1D1D",
"!	c #292929",
"~	c #333333",
"{	c #424242",
"]	c #4A4A4A",
"^	c #747474",
"/	c #5E5E5E",
"(	c #666666",
"_	c #787878",
":	c #4C4C4C",
"<	c #212121",
"[	c #161616",
"}	c #1A1A1A",
"|	c #1C1C1C",
"1	c #232323",
"2	c #3A3A3A",
"3	c #464646",
"4	c #3E3E3E",
"5	c #6B6B6B",
"6	c #808080",
"7	c #494949",
"8	c #2D2D2D",
"9	c #181818",
"0	c #151515",
"a	c #434343",
"b	c #404040",
"c	c #939393",
"d	c #656565",
"e	c #282828",
"f	c #585858",
"g	c #777777",
"h	c #959595",
"i	c #848484",
"j	c #252525",
"k	c #454545",
"l	c #525252",
"m	c #949494",
"n	c #4E4E4E",
"o	c #515151",
"p	c #545454",
"q	c #696969",
"r	c #919191",
"s	c #191919",
"t	c #3C3C3C",
"u	c #575757",
"v	c #3F3F3F",
"w	c #6D6D6D",
"x	c #757575",
"y	c #A5A5A5",
"z	c #1B1B1B",
"A	c #8F8F8F",
"B	c #2B2B2B",
"C	c #303030",
"D	c #797979",
"E	c #2F2F2F",
"F	c #6E6E6E",
"G	c #323232",
"H	c #828282",
"I	c #5A5A5A",
"J	c #262626",
"K	c #505050",
"L	c #121212",
"M	c #555555",
"N	c #141414",
"O	c #2C2C2C",
"P	c #858585",
"Q	c #363636",
"R	c #4B4B4B",
"S	c #7D7D7D",
"T	c #717171",
"U	c #535353",
"V	c #6F6F6F",
"W	c #929292",
"X	c #2A2A2A",
"....................",
"....................",
"++++++++++++++++++++",
"+@@@#####$%&*=-;>,'+",
"+@@#@)#!~{]^/(_:<[}+",
"+#@@|123456781#$)90+",
"+@#)%a3bcdeb'3:fghi+",
"+#)jk3lmn4opqr;8<s[+",
"+#@t''u'vwxl*[9)##@+",
"+)%=33avy'ez#@@@#@@+",
"+#&3'=uAB}###@#@@@@+",
"+#C'=uDBz@##Ej#@@@@+",
"+)8knF2)#@|Gq1)@@@@+",
"+$B=>HI@@|JKgL@@@@@+",
"+<4M^Ns@+O'PCz@@@@@+",
"+#Of:*Q2bRSoN@@@@@@+",
"+)%TB(/UVW4|@@#@@@@+",
"+)@E)#jX%)#@@@@@@@@+",
"+@#|@@####@#@@@@@@@+",
"+#@@@@@@@@@@@@@@@@@+"};
